<svg xmlns="http://www.w3.org/2000/svg" viewBox="0 0 1600 1200" role="img" aria-labelledby="title desc">
  <title id="title">Tokenity Japan AI and Web3 trust operations visual</title>
  <desc id="desc">A Tokyo and Osaka inspired operating room with trust graph, chain analytics, AI agents, and shareholder dashboard signals.</desc>
  <defs>
    <linearGradient id="sky" x1="0" x2="1" y1="0" y2="1">
      <stop offset="0" stop-color="#0d1626"/>
      <stop offset="0.48" stop-color="#17334b"/>
      <stop offset="1" stop-color="#264b3e"/>
    </linearGradient>
    <linearGradient id="panel" x1="0" x2="1">
      <stop offset="0" stop-color="#f4f8fb" stop-opacity=".96"/>
      <stop offset="1" stop-color="#dbe8ec" stop-opacity=".9"/>
    </linearGradient>
    <linearGradient id="amber" x1="0" x2="1">
      <stop offset="0" stop-color="#f7c85f"/>
      <stop offset="1" stop-color="#e17d3a"/>
    </linearGradient>
    <linearGradient id="mint" x1="0" x2="1">
      <stop offset="0" stop-color="#7ee2c6"/>
      <stop offset="1" stop-color="#46a4c8"/>
    </linearGradient>
    <filter id="softShadow" x="-20%" y="-20%" width="140%" height="140%">
      <feDropShadow dx="0" dy="22" stdDeviation="24" flood-color="#07111d" flood-opacity=".3"/>
    </filter>
  </defs>
  <rect width="1600" height="1200" fill="url(#sky)"/>
  <path d="M0 796c210-88 342-69 495-21 193 60 314 70 512-22 174-81 350-126 593-29v476H0z" fill="#102235" opacity=".78"/>
  <path d="M0 885c191-60 365-50 546 9 231 75 405 61 627-35 139-60 275-77 427-32v373H0z" fill="#071523" opacity=".82"/>
  <g opacity=".52">
    <path d="M110 690h118v310H110zM262 618h86v382h-86zM399 735h139v265H399zM588 585h96v415h-96zM720 670h155v330H720zM1218 580h107v420h-107zM1369 708h112v292h-112z" fill="#d7e4e8"/>
    <path d="M1110 428l66 572H986l51-572z" fill="#edf5f4"/>
    <path d="M1045 428h124l-35-95h-54z" fill="#f7c85f"/>
    <path d="M1018 563h139M1003 724h169M989 875h198" stroke="#14334a" stroke-width="10" opacity=".45"/>
  </g>
  <g filter="url(#softShadow)">
    <rect x="190" y="202" width="1220" height="676" rx="34" fill="url(#panel)"/>
    <rect x="232" y="246" width="1136" height="88" rx="24" fill="#16263a"/>
    <circle cx="284" cy="290" r="12" fill="#f07167"/>
    <circle cx="324" cy="290" r="12" fill="#f7c85f"/>
    <circle cx="364" cy="290" r="12" fill="#7ee2c6"/>
    <text x="430" y="302" font-family="Inter, Arial, sans-serif" font-size="34" font-weight="700" fill="#f4f8fb">Tokenity Operating Room</text>
    <rect x="260" y="382" width="346" height="388" rx="26" fill="#ffffff"/>
    <rect x="648" y="382" width="432" height="388" rx="26" fill="#ffffff"/>
    <rect x="1118" y="382" width="222" height="388" rx="26" fill="#ffffff"/>
  </g>
  <g font-family="Inter, Arial, sans-serif" fill="#172131">
    <text x="292" y="442" font-size="26" font-weight="800">AI Agent Dispatch</text>
    <text x="292" y="710" font-size="24" font-weight="700" fill="#2f6b5f">One-person company stack</text>
    <path d="M306 500h230M306 558h178M306 616h248" stroke="#d4dde1" stroke-width="18" stroke-linecap="round"/>
    <path d="M306 500h172M306 558h118M306 616h205" stroke="url(#mint)" stroke-width="18" stroke-linecap="round"/>
    <text x="690" y="442" font-size="26" font-weight="800">Trust Graph</text>
    <text x="1150" y="442" font-size="26" font-weight="800">Japan KPI</text>
  </g>
  <g>
    <path d="M740 644c110-186 221-186 332-4M740 520c110 148 221 148 332 0M812 474c55 254 111 254 167 0M812 690c55-219 111-219 167 0" fill="none" stroke="#24445d" stroke-width="8" opacity=".18"/>
    <circle cx="742" cy="520" r="34" fill="url(#amber)"/>
    <circle cx="890" cy="474" r="42" fill="url(#mint)"/>
    <circle cx="1072" cy="520" r="34" fill="url(#amber)"/>
    <circle cx="742" cy="644" r="34" fill="url(#mint)"/>
    <circle cx="920" cy="694" r="42" fill="url(#amber)"/>
    <circle cx="1072" cy="644" r="34" fill="url(#mint)"/>
    <circle cx="906" cy="584" r="58" fill="#172131"/>
    <text x="906" y="595" text-anchor="middle" font-family="Inter, Arial, sans-serif" font-size="32" font-weight="900" fill="#fff">T</text>
  </g>
  <g font-family="Inter, Arial, sans-serif">
    <rect x="1150" y="486" width="158" height="46" rx="23" fill="#eaf2f3"/>
    <rect x="1150" y="562" width="122" height="46" rx="23" fill="#eaf2f3"/>
    <rect x="1150" y="638" width="176" height="46" rx="23" fill="#eaf2f3"/>
    <text x="1176" y="518" font-size="21" font-weight="800" fill="#172131">AML Graph</text>
    <text x="1176" y="594" font-size="21" font-weight="800" fill="#172131">BCA</text>
    <text x="1176" y="670" font-size="21" font-weight="800" fill="#172131">AI Staffing</text>
  </g>
  <g opacity=".65">
    <path d="M202 916h1196" stroke="#dfe9eb" stroke-width="3"/>
    <path d="M302 974c128-114 250-110 369-30 118 80 244 96 377-6 93-71 185-82 276-34" fill="none" stroke="#7ee2c6" stroke-width="12" stroke-linecap="round"/>
    <path d="M302 1018c166-50 291-36 430 28 134 62 254 62 370-22 80-58 154-74 222-46" fill="none" stroke="#f7c85f" stroke-width="12" stroke-linecap="round"/>
  </g>
</svg>
